<?xml version="1.0" encoding="utf-8"?>
<!-- Generator: Adobe Illustrator 16.0.4, SVG Export Plug-In . SVG Version: 6.00 Build 0)  -->
<!DOCTYPE svg PUBLIC "-//W3C//DTD SVG 1.1//EN" "http://www.w3.org/Graphics/SVG/1.1/DTD/svg11.dtd">
<svg version="1.1" id="Layer_1" xmlns="http://www.w3.org/2000/svg" xmlns:xlink="http://www.w3.org/1999/xlink" x="0px" y="0px"
	 width="102.625px" height="77.625px" viewBox="0 0 102.625 77.625" enable-background="new 0 0 102.625 77.625"
	 xml:space="preserve">
<g>
	<path fill="#7BC5C4" d="M63.484,4.194c6.66,6.625,12.18,14.16,15.703,22.168h5.523c2.613,0,3.75,1.363,3.75,3.145
		c0,1.023-0.375,1.82-0.984,2.539l-4.762,5.715c0.438,2.461,0.668,4.949,0.668,7.449c0,0.324-0.004,0.652-0.016,0.977h2.176
		c2.613,0,3.754,1.328,3.754,3.641c0,0.723-0.117,1.402-0.414,2.047h-6.195c-3.066,14.523-15.949,25.434-31.375,25.434v0.078
		c28.18,0,51.023-22.844,51.023-51.023C102.336-2.087,81.379-3.396,63.484,4.194z"/>
	<path fill="#AFC736" d="M17.996,28.937l5.418,14.406l6.52-16.379c0.191-0.453,0.379-0.602,0.871-0.602h2.09
		c0.859,0,1.543,0.18,2.047,0.5c4.426-6.004,10.137-11.41,16.371-15.809C44.801,6.343,36.609,2.476,28.707,0.944
		C22.559,8.851,17.871,17.526,15.48,26.522C16.738,26.831,17.488,27.593,17.996,28.937z M25.812,52.405c-0.039,0-0.078,0-0.121,0
		c-3.414,0-6.184-1.406-7.621-4.965l-4.285-10.516c-0.051,0.914-0.078,1.832-0.078,2.75c0,20.77,16.836,37.633,37.605,37.633v-0.078
		C37.469,77.229,26.207,66.151,25.812,52.405z"/>
	<path fill="#DEDA1F" d="M51.312,77.308c-20.77,0-37.605-16.863-37.605-37.633c0-0.918,0.027-1.836,0.078-2.75L9.73,26.964
		c-0.152-0.414-0.039-0.602,0.414-0.602h3.793c0.586,0,1.094,0.051,1.543,0.16c2.391-8.996,7.078-17.672,13.227-25.578
		C13.996-1.903,0.289,3.354,0.289,26.362c0,28.18,22.844,51.023,51.023,51.023V77.308z"/>
	<path fill="#089447" d="M70.57,51.874c-2.617,0-3.754-1.363-3.754-3.148c0-1.023,0.379-1.816,0.988-2.539l6.41-7.688
		c-0.859-2.195-1.91-4.352-3.125-6.453h-0.027c-2.617,0-3.75-1.328-3.75-3.637c0-0.59,0.078-1.148,0.27-1.688
		c-1.09-1.469-2.258-2.902-3.488-4.289c-2.039,0.379-2.656,1.59-2.656,3.055c0,1.406,0.566,2.73,0.566,4.32
		c0,3.148-2.199,4.324-3.715,4.324c-1.629-1.629-3.754-2.844-6.559-2.844c-4.738,0-7.77,3.488-7.77,7.848
		c0,3.867,2.426,7.812,7.77,7.812c1.895,0,3.488-0.496,4.703-1.258v-5.836c0.758-0.34,1.816-0.68,3.031-0.68
		c2.465,0,3.637,1.359,3.637,3.602v6.672c-2.805,2.195-7.426,3.867-11.789,3.867c-8.336,0-14.215-6.031-14.215-14.027
		c0-8.152,6.145-14.371,14.406-14.371c2.16,0,5.117,0.418,7.316,1.859c-0.227-1.102-0.418-2.426-0.418-3.715
		c0-1.824,0.371-3.715,1.32-5.137c-2.633-2.484-5.461-4.789-8.41-6.871c-6.234,4.398-11.945,9.805-16.371,15.809
		c0.734,0.465,1.098,1.227,1.098,2.148c0,0.609-0.152,1.254-0.418,1.898l-8.91,20.93c-0.207,0.488-0.418,0.559-0.898,0.566
		c0.395,13.746,11.656,24.824,25.5,24.824c14.02,0,25.395-11.363,25.508-25.355H70.57z"/>
	<path fill="#00AAA3" d="M74.211,38.499l5.383-6.453H71.09C72.305,34.147,73.355,36.304,74.211,38.499z M64.355,15.597
		c2.805,0,3.789,1.516,3.789,3.598c0,1.102-0.266,1.934-0.797,3.109h-1.742c-0.574,0-1.074,0.047-1.512,0.129
		c1.23,1.387,2.398,2.82,3.488,4.289c0.043-0.121,0.09-0.242,0.145-0.359h11.461c-3.523-8.008-9.043-15.543-15.703-22.168l0,0
		c-4.352,1.848-8.527,4.223-12.172,6.859c2.949,2.082,5.777,4.387,8.41,6.871C60.648,16.538,62.129,15.597,64.355,15.597z
		 M82.715,37.761l-7.027,8.426h7.68c0.012-0.324,0.016-0.652,0.016-0.977C83.383,42.71,83.152,40.222,82.715,37.761z M51.312,77.229
		v0.078c15.426,0,28.309-10.91,31.375-25.434H76.82C76.707,65.866,65.332,77.229,51.312,77.229z"/>
</g>
</svg>
